<svg data-v-423bf9ae="" xmlns="http://www.w3.org/2000/svg" viewBox="0 0 423.75289775234063 163" class="iconAbove"><!----><!----><!----><g data-v-423bf9ae="" id="fdf0e995-ee16-4698-9a3e-bbb4f20b0ed5" fill="black" transform="matrix(4.633204701445071,0,0,4.633204701445071,-6.625486376691441,86.13513654646464)"><path d="M4.07 13.92L4.07 13.92L4.07 13.92Q2.09 13.92 1.43 12.25L1.43 12.25L2.20 11.83L2.20 11.83Q2.51 12.49 2.88 12.76L2.88 12.76L2.88 12.76Q3.25 13.03 4.09 13.03L4.09 13.03L4.09 13.03Q4.91 13.03 5.49 12.51L5.49 12.51L5.49 12.51Q6.06 11.98 6.06 10.81L6.06 10.81L6.06 3.95L7.04 3.95L7.04 10.64L7.04 10.64Q7.04 11.59 6.77 12.27L6.77 12.27L6.77 12.27Q6.50 12.95 6.03 13.29L6.03 13.29L6.03 13.29Q5.57 13.62 5.09 13.77L5.09 13.77L5.09 13.77Q4.61 13.92 4.07 13.92ZM21.99 13.92L21.99 13.92L21.99 13.92Q21.07 13.92 20.36 13.49L20.36 13.49L20.36 13.49Q19.64 13.06 19.23 12.33L19.23 12.33L19.23 12.33Q18.82 11.61 18.61 10.72L18.61 10.72L18.61 10.72Q18.41 9.84 18.41 8.85L18.41 8.85L18.41 8.85Q18.41 7.45 18.77 6.34L18.77 6.34L18.77 6.34Q19.14 5.22 19.97 4.50L19.97 4.50L19.97 4.50Q20.80 3.78 21.99 3.78L21.99 3.78L21.99 3.78Q22.99 3.78 23.56 4.21L23.56 4.21L23.56 4.21Q24.14 4.63 24.50 5.36L24.50 5.36L23.63 5.87L23.63 5.87Q23.32 5.31 22.95 4.98L22.95 4.98L22.95 4.98Q22.58 4.66 21.99 4.66L21.99 4.66L21.99 4.66Q21.10 4.66 20.50 5.33L20.50 5.33L20.50 5.33Q19.89 5.99 19.66 6.90L19.66 6.90L19.66 6.90Q19.43 7.80 19.43 8.85L19.43 8.85L19.43 8.85Q19.43 10.61 20.08 11.82L20.08 11.82L20.08 11.82Q20.72 13.03 21.99 13.03L21.99 13.03L21.99 13.03Q23.18 13.03 23.77 11.79L23.77 11.79L24.64 12.12L24.64 12.12Q24.32 12.89 23.65 13.41L23.65 13.41L23.65 13.41Q22.99 13.92 21.99 13.92ZM32.59 12.92L32.59 12.92L32.59 12.92Q31.68 13.92 30.18 13.92L30.18 13.92L30.18 13.92Q28.69 13.92 27.78 12.93L27.78 12.93L27.78 12.93Q26.88 11.94 26.88 10.18L26.88 10.18L26.88 10.18Q26.88 8.43 27.78 7.43L27.78 7.43L27.78 7.43Q28.69 6.43 30.18 6.43L30.18 6.43L30.18 6.43Q31.68 6.43 32.59 7.41L32.59 7.41L32.59 7.41Q33.49 8.40 33.49 10.16L33.49 10.16L33.49 10.16Q33.49 11.91 32.59 12.92ZM30.18 13.03L30.18 13.03L30.18 13.03Q31.26 13.03 31.86 12.27L31.86 12.27L31.86 12.27Q32.47 11.51 32.47 10.16L32.47 10.16L32.47 10.16Q32.47 8.81 31.88 8.06L31.88 8.06L31.88 8.06Q31.29 7.31 30.18 7.31L30.18 7.31L30.18 7.31Q29.06 7.31 28.48 8.04L28.48 8.04L28.48 8.04Q27.90 8.78 27.90 10.18L27.90 10.18L27.90 10.18Q27.90 11.54 28.49 12.29L28.49 12.29L28.49 12.29Q29.08 13.03 30.18 13.03ZM40.63 6.43L40.63 6.43L40.63 6.43Q41.52 6.43 41.95 7.00L41.95 7.00L41.95 7.00Q42.38 7.57 42.38 8.79L42.38 8.79L42.38 13.75L41.37 13.75L41.37 9.37L41.37 9.37Q41.37 8.27 41.19 7.81L41.19 7.81L41.19 7.81Q41.01 7.34 40.45 7.34L40.45 7.34L40.45 7.34Q39.86 7.34 39.59 7.92L39.59 7.92L39.59 7.92Q39.31 8.51 39.31 9.46L39.31 9.46L39.31 13.75L38.30 13.75L38.30 9.18L38.30 9.18Q38.30 8.78 38.28 8.49L38.28 8.49L38.28 8.49Q38.25 8.20 38.16 7.92L38.16 7.92L38.16 7.92Q38.08 7.63 37.90 7.48L37.90 7.48L37.90 7.48Q37.72 7.34 37.44 7.34L37.44 7.34L37.44 7.34Q36.86 7.34 36.55 7.94L36.55 7.94L36.55 7.94Q36.25 8.54 36.25 9.46L36.25 9.46L36.25 13.75L35.24 13.75L35.24 6.59L36.19 6.59L36.19 7.46L36.19 7.46Q36.64 6.43 37.56 6.43L37.56 6.43L37.56 6.43Q38.14 6.43 38.51 6.75L38.51 6.75L38.51 6.75Q38.88 7.07 39.02 7.55L39.02 7.55L39.02 7.55Q39.61 6.43 40.63 6.43ZM45.64 16.10L44.66 16.59L44.66 6.59L45.64 6.59L45.64 7.24L45.64 7.24Q46.06 6.85 46.51 6.64L46.51 6.64L46.51 6.64Q46.96 6.43 47.64 6.43L47.64 6.43L47.64 6.43Q49.08 6.43 49.92 7.44L49.92 7.44L49.92 7.44Q50.75 8.46 50.75 10.16L50.75 10.16L50.75 10.16Q50.75 11.93 49.90 12.92L49.90 12.92L49.90 12.92Q49.06 13.92 47.70 13.92L47.70 13.92L47.70 13.92Q46.41 13.92 45.64 13.02L45.64 13.02L45.64 16.10ZM47.59 13.03L47.59 13.03L47.59 13.03Q48.61 13.03 49.17 12.29L49.17 12.29L49.17 12.29Q49.73 11.55 49.73 10.16L49.73 10.16L49.73 10.16Q49.73 8.85 49.15 8.08L49.15 8.08L49.15 8.08Q48.57 7.31 47.53 7.31L47.53 7.31L47.53 7.31Q46.26 7.31 45.64 8.41L45.64 8.41L45.64 11.93L45.64 11.93Q46.49 13.03 47.59 13.03ZM62.79 13.75L61.85 13.75L61.85 3.95L62.99 3.95L64.48 10.07L64.48 10.07Q64.62 10.63 64.68 11.10L64.68 11.10L64.68 11.10Q64.71 10.75 64.88 10.07L64.88 10.07L66.37 3.95L67.51 3.95L67.51 13.75L66.57 13.75L66.57 7.18L66.57 7.18Q66.57 6.61 66.60 6.26L66.60 6.26L66.60 6.26Q66.51 6.79 66.42 7.18L66.42 7.18L64.79 13.75L64.57 13.75L62.94 7.18L62.94 7.18Q62.85 6.79 62.76 6.26L62.76 6.26L62.76 6.26Q62.79 6.96 62.79 7.18L62.79 7.18L62.79 13.75ZM76.37 9.88L76.37 9.88L76.37 9.88Q76.37 10.26 76.34 10.57L76.34 10.57L71.27 10.57L71.27 10.57Q71.41 11.72 71.99 12.36L71.99 12.36L71.99 12.36Q72.56 13.01 73.49 13.01L73.49 13.01L73.49 13.01Q74.40 13.01 75.19 12.45L75.19 12.45L75.73 13.10L75.73 13.10Q74.69 13.92 73.44 13.92L73.44 13.92L73.44 13.92Q71.97 13.92 71.11 12.83L71.11 12.83L71.11 12.83Q70.24 11.75 70.24 10.16L70.24 10.16L70.24 10.16Q70.24 8.40 71.11 7.41L71.11 7.41L71.11 7.41Q71.97 6.43 73.44 6.43L73.44 6.43L73.44 6.43Q74.72 6.43 75.54 7.30L75.54 7.30L75.54 7.30Q76.37 8.18 76.37 9.88ZM71.25 9.69L71.25 9.69L75.38 9.69L75.38 9.69Q75.36 8.39 74.78 7.85L74.78 7.85L74.78 7.85Q74.20 7.31 73.44 7.31L73.44 7.31L73.44 7.31Q72.41 7.31 71.86 7.94L71.86 7.94L71.86 7.94Q71.30 8.57 71.25 9.69ZM84.99 9.88L84.99 9.88L84.99 9.88Q84.99 10.26 84.97 10.57L84.97 10.57L79.90 10.57L79.90 10.57Q80.04 11.72 80.61 12.36L80.61 12.36L80.61 12.36Q81.19 13.01 82.11 13.01L82.11 13.01L82.11 13.01Q83.02 13.01 83.82 12.45L83.82 12.45L84.35 13.10L84.35 13.10Q83.31 13.92 82.07 13.92L82.07 13.92L82.07 13.92Q80.60 13.92 79.73 12.83L79.73 12.83L79.73 12.83Q78.86 11.75 78.86 10.16L78.86 10.16L78.86 10.16Q78.86 8.40 79.73 7.41L79.73 7.41L79.73 7.41Q80.60 6.43 82.07 6.43L82.07 6.43L82.07 6.43Q83.34 6.43 84.17 7.30L84.17 7.30L84.17 7.30Q84.99 8.18 84.99 9.88ZM79.87 9.69L79.87 9.69L84 9.69L84 9.69Q83.99 8.39 83.41 7.85L83.41 7.85L83.41 7.85Q82.82 7.31 82.07 7.31L82.07 7.31L82.07 7.31Q81.03 7.31 80.48 7.94L80.48 7.94L80.48 7.94Q79.93 8.57 79.87 9.69ZM91.20 13.92L91.20 13.92L91.20 13.92Q89.50 13.92 89.50 12.21L89.50 12.21L89.50 7.48L87.81 7.48L87.81 6.59L89.50 6.59L89.50 4.13L90.48 3.64L90.48 6.59L92.88 6.59L92.88 7.48L90.48 7.48L90.48 11.79L90.48 11.79Q90.48 12.39 90.69 12.69L90.69 12.69L90.69 12.69Q90.89 12.99 91.53 12.99L91.53 12.99L91.53 12.99Q92.27 12.99 92.89 12.57L92.89 12.57L92.78 13.59L92.78 13.59Q92.18 13.92 91.20 13.92Z"></path></g><!----><g data-v-423bf9ae="" id="140d7cce-abab-4d2e-8a80-77dd74fc6e15" transform="matrix(1.3676482045536333,0,0,1.3676482045536333,143.81238927408228,-19.51435527143849)" stroke="none" fill="black"><path d="M42.966 51.018h.606c-.168-.14-.33-.268-.476-.422-4.806-4.341-8.473-12.778-8.473-19.599 0-9.65 7.9-15.998 15.371-15.998 7.465 0 14.968 6.867 14.968 16.513 0 6.818-4.056 14.999-9.074 19.191 1.031 3.933 6.678 5.22 18.324 8.414 12.939 3.552 11.579 15.705 10.673 18.245-1.497 4.195-68.574 4.971-69.839 0-.281-2.057-3.246-14.693 9.695-18.245 11.326-3.109 16.968-4.414 18.225-8.099z"></path><path d="M43.572 51.018h-.606c.05-.14.088-.275.129-.422.145.154.31.283.477.422zM24.331 57.623l2.164-.592c4.106-1.121 7.357-2.015 9.796-2.903-1.913-.847-3.007-1.78-3.362-3.132 1.643-1.373 3.129-3.331 4.302-5.512-2.513-4.452-4.157-9.818-4.157-14.486 0-1.709.289-3.44.814-5.118-1.656-1.024-3.512-1.602-5.369-1.602-5.591 0-11.503 4.75-11.503 11.972 0 5.104 2.744 11.418 6.34 14.667.109.115.231.211.356.316h-.454c-.94 2.758-5.162 3.734-13.638 6.061-9.684 2.658-7.465 12.114-7.255 13.653.272 1.069 4.622 1.781 10.697 2.181-.251-10.054 5.789-14.002 11.269-15.505zM75.385 57.623l-2.164-.592c-4.106-1.121-7.357-2.015-9.796-2.903 1.913-.847 3.007-1.78 3.362-3.132-1.643-1.373-3.129-3.331-4.302-5.512 2.513-4.452 4.157-9.818 4.157-14.486 0-1.709-.289-3.44-.814-5.118 1.656-1.024 3.512-1.602 5.369-1.602 5.591 0 11.503 4.75 11.503 11.972 0 5.104-2.744 11.418-6.34 14.667-.109.115-.231.211-.356.316h.454c.94 2.758 5.162 3.734 13.638 6.061 9.684 2.658 7.465 12.114 7.255 13.653-.272 1.069-4.622 1.781-10.697 2.181.251-10.054-5.79-14.002-11.269-15.505z"></path></g><!----></svg>